<svg xmlns="http://www.w3.org/2000/svg" viewBox="0 0 64 64">
  <circle cx="32" cy="32" r="30" fill="#6c5ce7"/>
  <circle cx="32" cy="32" r="28" fill="none" stroke="#ffffff" stroke-width="0.5" opacity="0.3"/>
  <path d="M32 4 A28 28 0 0 1 56.4 20 L32 32 Z" fill="#e74c3c"/>
  <path d="M56.4 20 A28 28 0 0 1 46.6 50.6 L32 32 Z" fill="#3498db"/>
  <path d="M46.6 50.6 A28 28 0 0 1 17.4 50.6 L32 32 Z" fill="#2ecc71"/>
  <path d="M17.4 50.6 A28 28 0 0 1 7.6 20 L32 32 Z" fill="#f39c12"/>
  <path d="M7.6 20 A28 28 0 0 1 32 4 L32 32 Z" fill="#9b59b6"/>
  <circle cx="32" cy="32" r="6" fill="#2d3436"/>
  <circle cx="32" cy="32" r="4" fill="#ffffff"/>
  <polygon points="32,4 28,12 36,12" fill="#fd79a8"/>
</svg>
